# xmcd CD database file
#
# Track frame offsets:
#	150
#	14275
#	25730
#	41630
#	51602
#	62020
#	72092
#	82227
#	95730
#	113515
#
# Disc length: 1625 seconds
#
# Revision: 0
# Processed by: cddbd v1.4PL0 Copyright (c) Steve Scherf et al.
# Submitted via: CDex 1.40Beta9
#
DISCID=8506570a
DTITLE=John R. Bowman - Footprints of Faith
DYEAR=1994
DGENRE=Country
TTITLE0=There Is No Excuse
TTITLE1=A Small Piece Of Clay
TTITLE2=God Sent An Angel
TTITLE3=Sea Of Galilee
TTITLE4=A Like The Christian Life
TTITLE5=That Awful Day
TTITLE6=He Can Be Found
TTITLE7=Do You Live What You Preach
TTITLE8=Footprints
TTITLE9=Hand In Hand To That Promised Land
EXTD=YEAR: 1994 ID3G: 2
EXTT0=
EXTT1=
EXTT2=
EXTT3=
EXTT4=
EXTT5=
EXTT6=
EXTT7=
EXTT8=
EXTT9=
PLAYORDER=
